<svg width="48" height="48" viewBox="0 0 48 48" fill="none" xmlns="http://www.w3.org/2000/svg">
<rect width="48" height="48" rx="6" fill="#845EC2"/>
<path d="M19.1367 27.5234C19.1367 26.8594 18.9023 26.3516 18.4336 26C17.9648 25.6406 17.1211 25.2656 15.9023 24.875C14.6836 24.4766 13.7188 24.0859 13.0078 23.7031C11.0703 22.6562 10.1016 21.2461 10.1016 19.4727C10.1016 18.5508 10.3594 17.7305 10.875 17.0117C11.3984 16.2852 12.1445 15.7188 13.1133 15.3125C14.0898 14.9062 15.1836 14.7031 16.3945 14.7031C17.6133 14.7031 18.6992 14.9258 19.6523 15.3711C20.6055 15.8086 21.3438 16.4297 21.8672 17.2344C22.3984 18.0391 22.6641 18.9531 22.6641 19.9766H19.1484C19.1484 19.1953 18.9023 18.5898 18.4102 18.1602C17.918 17.7227 17.2266 17.5039 16.3359 17.5039C15.4766 17.5039 14.8086 17.6875 14.332 18.0547C13.8555 18.4141 13.6172 18.8906 13.6172 19.4844C13.6172 20.0391 13.8945 20.5039 14.4492 20.8789C15.0117 21.2539 15.8359 21.6055 16.9219 21.9336C18.9219 22.5352 20.3789 23.2812 21.293 24.1719C22.207 25.0625 22.6641 26.1719 22.6641 27.5C22.6641 28.9766 22.1055 30.1367 20.9883 30.9805C19.8711 31.8164 18.3672 32.2344 16.4766 32.2344C15.1641 32.2344 13.9688 31.9961 12.8906 31.5195C11.8125 31.0352 10.9883 30.375 10.418 29.5391C9.85547 28.7031 9.57422 27.7344 9.57422 26.6328H13.1016C13.1016 28.5156 14.2266 29.457 16.4766 29.457C17.3125 29.457 17.9648 29.2891 18.4336 28.9531C18.9023 28.6094 19.1367 28.1328 19.1367 27.5234ZM38.4492 26.3164C38.3164 28.1523 37.6367 29.5977 36.4102 30.6523C35.1914 31.707 33.582 32.2344 31.582 32.2344C29.3945 32.2344 27.6719 31.5 26.4141 30.0312C25.1641 28.5547 24.5391 26.5312 24.5391 23.9609V22.918C24.5391 21.2773 24.8281 19.832 25.4062 18.582C25.9844 17.332 26.8086 16.375 27.8789 15.7109C28.957 15.0391 30.207 14.7031 31.6289 14.7031C33.5977 14.7031 35.1836 15.2305 36.3867 16.2852C37.5898 17.3398 38.2852 18.8203 38.4727 20.7266H34.957C34.8711 19.625 34.5625 18.8281 34.0312 18.3359C33.5078 17.8359 32.707 17.5859 31.6289 17.5859C30.457 17.5859 29.5781 18.0078 28.9922 18.8516C28.4141 19.6875 28.1172 20.9883 28.1016 22.7539V24.043C28.1016 25.8867 28.3789 27.2344 28.9336 28.0859C29.4961 28.9375 30.3789 29.3633 31.582 29.3633C32.668 29.3633 33.4766 29.1172 34.0078 28.625C34.5469 28.125 34.8555 27.3555 34.9336 26.3164H38.4492Z" fill="#E2E2E2"/>
</svg>
